<svg width="1440" height="347" xmlns="http://www.w3.org/2000/svg">
  <defs>
    <linearGradient x1="50%" y1="0%" x2="50%" y2="100%" id="a">
      <stop stop-color="#606483" stop-opacity="0" offset="0%"/>
      <stop stop-color="#0B0D19" stop-opacity=".72" offset="100%"/>
    </linearGradient>
    <linearGradient x1="50%" y1="0%" x2="39.334%" y2="79.282%" id="b">
      <stop stop-color="#0B0D19" offset="0%"/>
      <stop stop-color="#0B0D19" stop-opacity="0" offset="100%"/>
    </linearGradient>
  </defs>
  <g fill="none" fill-rule="evenodd">
    <path
      d="M177.486 208.219c78.18 89.285 218.65-81.067 218.65-119.337 0-38.27-86.408-69.295-193-69.295-106.59 0-193 31.024-193 69.295 0 38.27 89.17 30.051 167.35 119.337z"
      transform="rotate(6 -140.175 3980.948)" fill="url(#a)"/>
    <path
      d="M252.464 335.471c101.27 115.965 283.227-105.29 283.227-154.996 0-49.705-111.929-90-250-90s-250 40.295-250 90c0 49.706 115.503 39.032 216.773 154.996z"
      fill="url(#a)" transform="rotate(24 321.92 -247.724)"/>
    <path
      d="M302.512 242.909c88.025 32.428 156-25.04 156-55.93 0-30.888-69.844-55.928-156-55.928-86.157 0-156 25.04-156 55.929 0 30.888 67.974 23.5 156 55.929z"
      fill="url(#b)" transform="rotate(24 338.741 -285.505)"/>
  </g>
</svg>
