<svg width="1440" height="582" xmlns="http://www.w3.org/2000/svg">
    <defs>
        <linearGradient x1="50%" y1="0%" x2="50%" y2="100%" id="a">
            <stop stop-color="#606483" stop-opacity="0" offset="0%"/>
            <stop stop-color="#363636" stop-opacity=".72" offset="100%"/>
        </linearGradient>
        <linearGradient x1="50%" y1="0%" x2="39.334%" y2="79.282%" id="b">
            <stop stop-color="#363636" offset="0%"/>
            <stop stop-color="#363636" stop-opacity="0" offset="100%"/>
        </linearGradient>
        <radialGradient cx="33.3%" cy="43.394%" fx="33.3%" fy="43.394%" r="57.93%"
                        gradientTransform="matrix(.24796 -.96592 .92535 .25883 -.151 .643)" id="c">
            <stop stop-color="#c3352e" stop-opacity="0" offset="0%"/>
            <stop stop-color="#c3352e" stop-opacity=".64" offset="51.712%"/>
            <stop stop-color="#c3352e" stop-opacity=".24" offset="100%"/>
        </radialGradient>
        <filter id="d">
            <feTurbulence type="fractalNoise" numOctaves="2" baseFrequency=".3" result="turb"/>
            <feComposite in="turb" operator="arithmetic" k1=".1" k2=".1" k3=".1" k4=".1" result="result1"/>
            <feComposite operator="in" in="result1" in2="SourceGraphic" result="finalFilter"/>
            <feBlend mode="multiply" in="finalFilter" in2="SourceGraphic"/>
        </filter>
    </defs>
    <g fill="none" fill-rule="evenodd">
        <path
                d="M252.464 335.471c101.27 115.965 283.227-105.29 283.227-154.996 0-49.705-111.929-90-250-90s-250 40.295-250 90c0 49.706 115.503 39.032 216.773 154.996z"
                fill="url(#a)" transform="rotate(24 -272.272 -82.087)"/>
        <path
                d="M302.512 242.909c88.025 32.428 156-25.04 156-55.93 0-30.888-69.844-55.928-156-55.928-86.157 0-156 25.04-156 55.929 0 30.888 67.974 23.5 156 55.929z"
                fill="url(#b)" transform="rotate(24 -255.451 -119.868)"/>
        <path
                d="M103.064 315.218c128.156 12.998 192.38 157.059 218.627 106.632 26.247-50.427-44.059-106.456 60.397-202.707 104.457-96.252-143.2-285.785-172.392-122.551C180.503 259.825-25.091 302.22 103.064 315.218z"
                transform="translate(1176 -33)" fill="url(#c)" filter="url(#d)"/>
    </g>
</svg>
